<?xml version="1.0" encoding="UTF-8" standalone="no"?>
<!DOCTYPE svg PUBLIC "-//W3C//DTD SVG 1.1//EN" "http://www.w3.org/Graphics/SVG/1.1/DTD/svg11.dtd">
<svg width="100%" height="100%" viewBox="0 0 202 109" version="1.1" xmlns="http://www.w3.org/2000/svg" xmlns:xlink="http://www.w3.org/1999/xlink" xml:space="preserve" xmlns:serif="http://www.serif.com/" style="fill-rule:evenodd;clip-rule:evenodd;stroke-linejoin:round;stroke-miterlimit:1.41421;">
    <g transform="matrix(1,0,0,1,0.63774,-1.7527)">
        <g transform="matrix(1,0,0,1,486.027,-74.0169)">
            <g transform="matrix(1,0,0,1,11.3464,66.3684)">
                <clipPath id="_clip1">
                    <rect x="-493.061" y="10.02" width="182.125" height="104.769"/>
                </clipPath>
                <g clip-path="url(#_clip1)">
                    <g id="g4478" transform="matrix(1,0,0,1,0,-128)">
                        <rect id="rect4480" x="-493.371" y="137.401" width="184" height="51.215" style="fill:rgb(166,206,238);fill-opacity:0.988235;"/>
                        <rect id="rect4482" x="-493.371" y="187.017" width="40" height="56" style="fill:rgb(83,60,41);"/>
                        <g id="g4486" transform="matrix(0.384908,0,0,0.435332,-257.098,84.9068)">
                            <path id="path4488" d="M-519.596,234.189C-515.062,251.963 -514.572,288.666 -514.572,294.277C-514.572,299.888 -515.894,351.559 -515.894,356.703C-515.894,361.847 -516.687,365.12 -516.687,365.12L-541.28,367.458C-541.28,367.458 -531.566,318.559 -532.553,308.072C-533.171,301.518 -530.438,283.288 -530.438,273.702C-530.438,264.116 -526.549,245.244 -526.549,243.842C-526.549,242.439 -526.207,235.592 -524.885,233.955C-523.563,232.319 -519.596,234.189 -519.596,234.189Z" style="fill:rgb(37,93,35);"/>
                            <path id="path4490" d="M-534.669,234.891C-533.082,232.553 -529.38,233.488 -529.38,233.488C-529.38,233.488 -529.909,237.229 -529.909,238.631C-529.909,240.034 -539.164,272.533 -544.189,286.562C-549.213,300.59 -565.608,341.74 -568.517,347.117C-571.425,352.495 -578.036,366.289 -578.036,366.289C-578.036,366.289 -601.835,370.965 -601.042,366.757C-600.249,362.548 -583.589,334.258 -578.829,326.075C-574.07,317.891 -545.511,261.544 -545.511,261.544C-545.511,261.544 -534.405,238.631 -534.405,237.462C-534.405,236.293 -534.669,234.891 -534.669,234.891Z" style="fill:rgb(37,93,35);"/>
                            <path id="path4492" d="M-536.784,234.657C-536.784,231.384 -541.809,232.085 -541.809,233.488C-541.809,234.891 -557.41,254.063 -561.377,258.037C-565.343,262.012 -590.729,287.731 -590.729,287.731L-619.288,312.748L-620.081,333.556L-584.911,294.979L-555.559,260.142L-536.784,234.657Z" style="fill:rgb(37,93,35);"/>
                            <path id="path4494" d="M-545.511,234.423C-553.708,242.372 -587.027,269.728 -587.027,269.728L-620.346,295.212L-620.081,280.95L-598.927,268.325L-571.69,251.023L-551.328,236.293L-548.684,233.02L-545.511,234.423Z" style="fill:rgb(37,93,35);"/>
                            <path id="path4496" d="M-554.502,234.423L-585.44,253.829L-621.403,275.339L-619.552,264.584L-577.243,243.775L-558.732,233.955L-554.502,234.423Z" style="fill:rgb(37,93,35);"/>
                            <path id="path4498" d="M-566.137,233.955L-619.817,260.609L-618.23,254.998L-572.219,233.722L-566.137,233.955Z" style="fill:rgb(37,93,35);"/>
                            <path id="path4500" d="M-580.681,233.955L-625.899,254.063L-619.024,246.347L-584.647,233.254L-580.681,233.955Z" style="fill:rgb(37,93,35);"/>
                            <path id="path4502" d="M-594.996,234.391L-619.024,242.606L-618.495,239.099L-597.905,233.756L-594.996,234.391Z" style="fill:rgb(37,93,35);"/>
                            <path id="path4504" d="M-517.704,234.524C-513.17,252.298 -512.679,289 -512.679,294.612C-512.679,300.223 -514.001,351.894 -514.001,357.038C-514.001,362.181 -514.795,365.455 -514.795,365.455L-539.387,367.793C-539.387,367.793 -529.673,318.894 -530.661,308.406C-531.278,301.853 -528.545,283.623 -528.545,274.037C-528.545,264.451 -524.657,245.579 -524.657,244.176C-524.657,242.774 -524.314,235.927 -522.992,234.29C-521.67,232.653 -517.704,234.524 -517.704,234.524Z" style="fill:rgb(41,103,39);"/>
                            <path id="path4506" d="M-532.776,235.225C-531.19,232.887 -527.488,233.822 -527.488,233.822C-527.488,233.822 -528.016,237.563 -528.016,238.966C-528.016,240.369 -537.272,272.868 -542.296,286.896C-547.32,300.925 -563.715,342.074 -566.624,347.452C-569.533,352.829 -576.144,366.624 -576.144,366.624C-576.144,366.624 -599.943,371.3 -599.149,367.091C-598.356,362.883 -581.697,334.592 -576.937,326.409C-572.177,318.226 -543.618,261.879 -543.618,261.879C-543.618,261.879 -532.512,238.966 -532.512,237.797C-532.512,236.628 -532.776,235.225 -532.776,235.225Z" style="fill:rgb(41,103,39);"/>
                            <path id="path4508" d="M-534.984,234.849C-534.984,231.576 -539.916,232.42 -539.916,233.822C-539.916,235.225 -555.518,254.397 -559.484,258.372C-563.451,262.347 -588.836,288.065 -588.836,288.065L-617.395,313.082L-618.189,333.891L-583.019,295.313L-553.667,260.476L-534.984,234.849Z" style="fill:rgb(41,103,39);"/>
                            <path id="path4510" d="M-543.618,234.758C-551.816,242.707 -585.134,270.062 -585.134,270.062L-618.453,295.547L-618.189,281.285L-597.034,268.659L-569.797,251.358L-549.436,236.628L-546.791,233.355L-543.618,234.758Z" style="fill:rgb(41,103,39);"/>
                            <path id="path4512" d="M-552.609,234.758L-583.548,254.164L-619.511,275.674L-617.66,264.919L-575.35,244.11L-556.84,234.29L-552.609,234.758Z" style="fill:rgb(41,103,39);"/>
                            <path id="path4514" d="M-564.244,234.29L-617.924,260.944L-616.338,255.333L-570.326,234.056L-564.244,234.29Z" style="fill:rgb(41,103,39);"/>
                            <path id="path4516" d="M-578.788,234.29L-624.006,254.397L-617.131,246.682L-582.754,233.589L-578.788,234.29Z" style="fill:rgb(41,103,39);"/>
                            <path id="path4518" d="M-593.104,234.726L-617.131,242.941L-616.602,239.434L-596.012,234.091L-593.104,234.726Z" style="fill:rgb(41,103,39);"/>
                        </g>
                        <rect id="rect4520" x="-453.908" y="187.017" width="61.075" height="56" style="fill:rgb(133,99,74);"/>
                        <path id="path4522" d="M-439.971,207.101C-439.971,205.81 -440.027,205.719 -441.078,205.277C-442.023,204.88 -442.449,204.865 -444.011,205.173C-445.437,205.455 -446.073,205.457 -446.912,205.18C-447.632,204.942 -448.538,204.904 -449.658,205.063C-450.578,205.194 -451.463,205.308 -451.625,205.316C-452.321,205.349 -451.705,204.17 -449.598,201.433C-448.36,199.826 -447.347,198.367 -447.347,198.19C-447.347,198.014 -447.545,197.793 -447.787,197.701C-448.386,197.471 -447.998,196.505 -446.147,193.618C-444.629,191.25 -444.435,190.725 -445.075,190.725C-445.286,190.725 -445.611,190.573 -445.797,190.387C-446.169,190.014 -445.725,188.968 -443.92,185.966C-442.779,184.067 -442.728,183.757 -443.427,182.984C-443.907,182.454 -443.897,182.358 -443.247,181.133C-442.87,180.423 -441.665,178.371 -440.568,176.574L-438.574,173.306L-436.495,176.779C-435.352,178.688 -434.183,180.746 -433.897,181.351C-433.395,182.412 -433.397,182.473 -433.939,183.072C-434.494,183.685 -434.491,183.712 -433.662,185.217C-430.875,190.281 -430.743,190.725 -432.022,190.725C-432.337,190.725 -432.595,190.834 -432.595,190.967C-432.595,191.101 -431.798,192.452 -430.825,193.97C-428.958,196.881 -428.769,197.42 -429.514,197.706C-430.155,197.952 -429.948,198.339 -427.433,201.621C-425.12,204.638 -424.694,205.672 -425.883,205.376C-427.824,204.892 -429.176,204.833 -430.241,205.184C-431.169,205.49 -431.725,205.492 -433.135,205.193C-435.263,204.741 -437.001,205.189 -437.05,206.2C-437.155,208.395 -437.07,208.274 -438.57,208.37L-439.971,208.46L-439.971,207.101L-439.971,207.101Z" style="fill:rgb(45,76,36);fill-rule:nonzero;"/>
                        <path id="path4524" d="M-413.308,200.602C-413.308,199.82 -413.341,199.765 -413.978,199.497C-414.551,199.256 -414.809,199.247 -415.755,199.434C-416.619,199.605 -417.004,199.606 -417.512,199.438C-417.948,199.294 -418.498,199.271 -419.176,199.368C-419.733,199.447 -420.27,199.516 -420.368,199.52C-420.789,199.541 -420.416,198.826 -419.14,197.168C-418.39,196.195 -417.776,195.311 -417.776,195.204C-417.776,195.097 -417.896,194.963 -418.042,194.907C-418.405,194.768 -418.17,194.183 -417.049,192.434C-416.129,190.999 -416.012,190.681 -416.4,190.681C-416.528,190.681 -416.724,190.589 -416.837,190.477C-417.063,190.251 -416.794,189.617 -415.7,187.798C-415.009,186.648 -414.978,186.46 -415.401,185.992C-415.692,185.671 -415.686,185.613 -415.293,184.871C-415.064,184.44 -414.334,183.197 -413.669,182.108L-412.461,180.129L-411.202,182.233C-410.51,183.389 -409.801,184.636 -409.628,185.002C-409.324,185.645 -409.325,185.682 -409.653,186.045C-409.99,186.417 -409.988,186.433 -409.486,187.345C-407.797,190.412 -407.717,190.681 -408.492,190.681C-408.683,190.681 -408.839,190.747 -408.839,190.828C-408.839,190.909 -408.357,191.728 -407.767,192.648C-406.636,194.411 -406.522,194.737 -406.973,194.91C-407.361,195.059 -407.236,195.294 -405.712,197.282C-404.311,199.11 -404.052,199.736 -404.773,199.557C-405.949,199.264 -406.768,199.228 -407.413,199.441C-407.975,199.626 -408.312,199.627 -409.167,199.447C-410.455,199.173 -411.508,199.444 -411.538,200.057C-411.602,201.387 -411.55,201.313 -412.459,201.371L-413.308,201.426L-413.308,200.603L-413.308,200.602Z" style="fill:rgb(64,93,54);fill-rule:nonzero;"/>
                        <path id="path4526" d="M-408.571,208.591C-408.571,207.544 -408.678,206.689 -408.809,206.691C-408.939,206.693 -409.832,206.905 -410.791,207.163C-411.751,207.421 -412.577,207.633 -412.627,207.635C-412.677,207.637 -412.569,207.363 -412.389,207.025C-411.923,206.155 -411.979,205.952 -412.616,206.206C-412.921,206.328 -414.287,206.843 -415.651,207.35L-418.131,208.273L-417.428,207.285L-416.724,206.297L-417.486,206.525C-417.904,206.65 -418.581,206.964 -418.988,207.221C-419.396,207.479 -419.789,207.63 -419.861,207.558C-419.933,207.486 -419.353,206.439 -418.571,205.233C-417.79,204.026 -417.147,202.928 -417.143,202.792C-417.139,202.657 -417.601,202.787 -418.168,203.079C-418.929,203.473 -419.108,203.496 -418.851,203.167C-418.66,202.922 -417.482,201.415 -416.234,199.818C-414.985,198.22 -413.964,196.836 -413.964,196.741C-413.964,196.646 -414.4,196.72 -414.932,196.905C-415.464,197.091 -415.958,197.185 -416.028,197.115C-416.098,197.044 -415.377,196.009 -414.426,194.815C-413.474,193.62 -412.695,192.539 -412.695,192.412C-412.695,192.285 -413.06,192.251 -413.506,192.336C-414.281,192.484 -414.239,192.364 -412.538,189.558C-411.56,187.945 -410.829,186.556 -410.914,186.472C-410.998,186.387 -411.394,186.547 -411.793,186.826C-412.991,187.665 -413.094,187.41 -412.132,185.986C-411.072,184.416 -408.888,180.512 -408.888,180.187C-408.888,180.065 -409.257,180.206 -409.709,180.502C-410.16,180.798 -410.573,180.993 -410.628,180.935C-410.682,180.878 -409.983,179.353 -409.074,177.547L-407.423,174.264L-405.819,177.547C-404.937,179.353 -404.254,180.878 -404.303,180.935C-404.352,180.993 -404.76,180.798 -405.212,180.502C-405.663,180.206 -406.033,180.046 -406.033,180.145C-406.033,180.351 -403.286,185.145 -402.413,186.462C-401.751,187.461 -401.914,187.553 -403.04,186.815C-404.253,186.02 -404.269,186.466 -403.095,188.331C-402.506,189.266 -401.688,190.588 -401.277,191.268L-400.529,192.506L-401.377,192.343C-401.844,192.254 -402.223,192.268 -402.219,192.375C-402.216,192.482 -401.42,193.546 -400.451,194.74C-399.482,195.934 -398.763,196.986 -398.855,197.077C-398.946,197.168 -399.456,197.091 -399.988,196.905C-400.521,196.72 -400.956,196.633 -400.956,196.713C-400.956,196.793 -399.814,198.292 -398.418,200.044C-397.022,201.796 -395.88,203.298 -395.88,203.38C-395.88,203.463 -396.309,203.309 -396.832,203.039C-397.356,202.768 -397.784,202.62 -397.784,202.71C-397.784,202.8 -397.141,203.876 -396.356,205.101C-395.571,206.326 -394.929,207.4 -394.929,207.489C-394.929,207.577 -395.642,207.288 -396.515,206.846C-398.236,205.973 -398.486,206.078 -397.412,207.221C-397.034,207.624 -396.784,208.007 -396.857,208.073C-396.931,208.139 -398.268,207.716 -399.83,207.133C-401.392,206.55 -402.733,206.137 -402.81,206.214C-402.887,206.291 -402.767,206.576 -402.543,206.846C-401.926,207.589 -402.261,207.662 -403.956,207.151C-406.335,206.435 -406.35,206.444 -406.35,208.591L-406.35,210.494L-407.46,210.494L-408.571,210.494L-408.571,208.591L-408.571,208.591Z" style="fill:rgb(45,76,36);fill-rule:nonzero;"/>
                        <path id="path4528" d="M-410.178,220.986C-410.178,219.926 -410.226,219.851 -411.122,219.489C-411.928,219.163 -412.291,219.15 -413.623,219.403C-414.839,219.635 -415.381,219.636 -416.097,219.409C-416.71,219.214 -417.483,219.182 -418.438,219.313C-419.223,219.421 -419.977,219.514 -420.116,219.521C-420.709,219.548 -420.184,218.58 -418.387,216.333C-417.331,215.013 -416.468,213.815 -416.468,213.67C-416.468,213.525 -416.636,213.344 -416.842,213.268C-417.353,213.079 -417.023,212.286 -415.445,209.915C-414.15,207.971 -413.984,207.54 -414.531,207.54C-414.711,207.54 -414.988,207.415 -415.146,207.262C-415.464,206.956 -415.085,206.098 -413.546,203.632C-412.573,202.073 -412.529,201.818 -413.125,201.184C-413.534,200.749 -413.526,200.67 -412.972,199.664C-412.651,199.08 -411.622,197.396 -410.687,195.92L-408.987,193.237L-407.215,196.088C-406.24,197.656 -405.243,199.346 -404.999,199.843C-404.571,200.714 -404.573,200.764 -405.035,201.256C-405.508,201.759 -405.505,201.781 -404.799,203.018C-402.422,207.175 -402.309,207.54 -403.401,207.54C-403.669,207.54 -403.889,207.629 -403.889,207.739C-403.889,207.848 -403.21,208.958 -402.379,210.205C-400.788,212.595 -400.627,213.037 -401.262,213.272C-401.808,213.474 -401.632,213.792 -399.487,216.487C-397.515,218.964 -397.151,219.813 -398.165,219.57C-399.821,219.173 -400.973,219.124 -401.882,219.413C-402.673,219.664 -403.147,219.666 -404.35,219.42C-406.164,219.049 -407.646,219.417 -407.687,220.247C-407.777,222.05 -407.705,221.95 -408.983,222.029L-410.178,222.103L-410.178,220.987L-410.178,220.986Z" style="fill:rgb(54,90,43);fill-rule:nonzero;"/>
                        <path id="path4530" d="M-423.736,227.723C-423.736,226.131 -423.899,224.831 -424.098,224.834C-424.297,224.837 -425.654,225.16 -427.113,225.552C-428.572,225.944 -429.828,226.267 -429.904,226.27C-429.979,226.273 -429.817,225.856 -429.542,225.342C-428.834,224.019 -428.919,223.711 -429.887,224.097C-430.351,224.282 -432.428,225.065 -434.503,225.837L-438.274,227.24L-437.204,225.738L-436.134,224.235L-437.292,224.582C-437.929,224.773 -438.957,225.249 -439.577,225.641C-440.197,226.032 -440.794,226.263 -440.904,226.153C-441.014,226.043 -440.132,224.452 -438.943,222.617C-437.754,220.782 -436.777,219.112 -436.772,218.906C-436.766,218.7 -437.467,218.897 -438.329,219.343C-439.487,219.941 -439.759,219.976 -439.368,219.476C-439.077,219.103 -437.286,216.811 -435.388,214.383C-433.49,211.954 -431.937,209.849 -431.937,209.704C-431.937,209.559 -432.599,209.672 -433.409,209.954C-434.219,210.236 -434.969,210.38 -435.076,210.272C-435.183,210.165 -434.086,208.592 -432.639,206.775C-431.192,204.959 -430.007,203.315 -430.007,203.122C-430.007,202.929 -430.562,202.877 -431.24,203.006C-432.42,203.232 -432.356,203.048 -429.769,198.782C-428.282,196.33 -427.17,194.217 -427.299,194.089C-427.428,193.96 -428.029,194.203 -428.636,194.628C-430.457,195.903 -430.614,195.515 -429.152,193.35C-427.539,190.962 -424.218,185.027 -424.218,184.533C-424.218,184.346 -424.78,184.562 -425.466,185.011C-426.153,185.461 -426.781,185.757 -426.864,185.67C-426.946,185.582 -425.883,183.264 -424.502,180.518L-421.99,175.525L-419.551,180.518C-418.21,183.264 -417.173,185.582 -417.247,185.67C-417.32,185.757 -417.942,185.461 -418.629,185.011C-419.315,184.562 -419.876,184.317 -419.876,184.468C-419.876,184.782 -415.7,192.072 -414.373,194.074C-413.366,195.594 -413.613,195.733 -415.326,194.611C-417.171,193.403 -417.195,194.079 -415.41,196.916C-414.514,198.338 -413.27,200.348 -412.644,201.382L-411.507,203.264L-412.797,203.017C-413.507,202.882 -414.083,202.903 -414.078,203.066C-414.073,203.228 -412.863,204.846 -411.389,206.662C-409.915,208.477 -408.823,210.076 -408.962,210.215C-409.1,210.354 -409.876,210.236 -410.686,209.954C-411.495,209.672 -412.158,209.54 -412.158,209.662C-412.158,209.783 -410.421,212.062 -408.298,214.727C-406.176,217.391 -404.439,219.674 -404.439,219.8C-404.439,219.926 -405.09,219.692 -405.886,219.28C-406.682,218.869 -407.333,218.644 -407.333,218.781C-407.333,218.917 -406.357,220.553 -405.163,222.416C-403.969,224.279 -402.992,225.913 -402.992,226.047C-402.992,226.182 -404.077,225.742 -405.404,225.07C-408.021,223.743 -408.401,223.902 -406.769,225.64C-406.193,226.253 -405.813,226.836 -405.925,226.936C-406.036,227.036 -408.07,226.393 -410.445,225.507C-412.82,224.621 -414.859,223.992 -414.976,224.109C-415.094,224.227 -414.911,224.659 -414.57,225.07C-413.631,226.2 -414.141,226.31 -416.719,225.534C-420.337,224.446 -420.359,224.459 -420.359,227.723L-420.359,230.617L-422.047,230.617L-423.736,230.617L-423.736,227.723L-423.736,227.723Z" style="fill:rgb(59,100,47);fill-rule:nonzero;"/>
                        <rect id="rect4532" x="-393.371" y="187.017" width="36" height="56" style="fill:rgb(83,129,70);"/>
                        <rect id="rect4534" x="-358.087" y="187.017" width="48.717" height="56" style="fill:rgb(179,179,179);"/>
                        <path id="path4536" d="M-471.955,155.19C-473.192,154.285 -472.795,151.598 -471.317,150.868C-470.684,150.556 -469.847,149.909 -469.457,149.43C-468.272,147.975 -466.722,147.386 -464.863,147.683C-463.548,147.893 -463.067,147.79 -462.86,147.251C-462.447,146.173 -459.432,145.087 -457.734,145.406C-456.924,145.558 -455.89,146.092 -455.437,146.593C-454.983,147.094 -454.242,147.504 -453.789,147.504C-453.336,147.504 -452.39,148 -451.686,148.606C-449.861,150.175 -449.861,153.114 -451.686,154.684C-452.943,155.765 -453.131,155.785 -462.053,155.785C-468.762,155.785 -471.354,155.629 -471.955,155.19L-471.955,155.19Z" style="fill:rgb(236,237,237);fill-rule:nonzero;"/>
                        <path id="path4538" d="M-371.716,157.956C-372.028,157.372 -371.817,156.64 -371.337,156.64C-371.154,156.64 -370.932,156.355 -370.845,156.008C-370.693,155.399 -369.78,154.867 -369.451,155.195C-369.364,155.283 -369.168,154.984 -369.017,154.53C-368.383,152.626 -365.701,151.961 -364.253,153.348C-363.777,153.804 -363.366,153.981 -363.004,153.887C-362.094,153.649 -360.613,154.433 -360.41,155.26C-360.311,155.662 -359.952,156.252 -359.611,156.572C-359.127,157.027 -359.049,157.258 -359.25,157.634C-359.474,158.052 -359.971,158.137 -363.063,158.285C-365.019,158.379 -367.706,158.456 -369.034,158.456C-371.152,158.456 -371.481,158.394 -371.716,157.955L-371.716,157.956Z" style="fill:rgb(236,237,237);fill-opacity:0.996078;fill-rule:nonzero;"/>
                        <path id="path4540" d="M-376.96,153.557C-376.46,153.058 -376.12,152.322 -376.12,151.74C-376.12,150.611 -377.224,149.266 -378.152,149.266C-378.502,149.266 -379.327,148.727 -379.986,148.068C-381.441,146.613 -383.33,146.426 -384.811,147.591C-385.38,148.038 -386.002,148.24 -386.451,148.122C-387.5,147.848 -389.214,148.675 -389.775,149.726C-390.081,150.297 -390.547,150.634 -391.034,150.634C-392.699,150.634 -393.494,152.711 -392.256,153.831C-391.718,154.318 -390.67,154.397 -384.715,154.397C-377.829,154.397 -377.796,154.394 -376.96,153.557Z" style="fill:rgb(188,190,191);fill-opacity:0.996078;fill-rule:nonzero;"/>
                        <path id="path4542" d="M-483.514,152.372C-483.926,151.603 -483.648,150.637 -483.015,150.637C-482.773,150.637 -482.481,150.262 -482.366,149.804C-482.165,149.002 -480.961,148.3 -480.528,148.733C-480.413,148.848 -480.155,148.454 -479.956,147.855C-479.12,145.344 -475.584,144.467 -473.674,146.297C-473.046,146.898 -472.504,147.132 -472.027,147.007C-470.827,146.693 -468.874,147.727 -468.606,148.818C-468.476,149.348 -468.002,150.126 -467.554,150.548C-466.915,151.147 -466.812,151.452 -467.077,151.948C-467.372,152.499 -468.027,152.611 -472.105,152.806C-474.684,152.93 -478.227,153.031 -479.978,153.031C-482.771,153.031 -483.204,152.95 -483.514,152.372L-483.514,152.372Z" style="fill:rgb(204,205,206);fill-rule:nonzero;"/>
                        <path id="path4544" d="M-469.809,164.5C-469.309,164 -468.969,163.264 -468.969,162.683C-468.969,161.553 -470.073,160.208 -471.001,160.208C-471.351,160.208 -472.176,159.669 -472.835,159.011C-474.29,157.555 -476.179,157.368 -477.66,158.534C-478.229,158.981 -478.851,159.182 -479.3,159.065C-480.349,158.791 -482.063,159.617 -482.625,160.668C-482.93,161.24 -483.396,161.576 -483.883,161.576C-485.548,161.576 -486.343,163.654 -485.105,164.773C-484.567,165.261 -483.519,165.339 -477.564,165.339C-470.678,165.339 -470.645,165.337 -469.809,164.5Z" style="fill:rgb(222,224,224);fill-rule:nonzero;"/>
                        <path id="path4546" d="M-416.41,155.276C-415.964,154.915 -415.575,154.815 -415.189,154.96C-414.544,155.203 -413.626,154.931 -413.182,154.366C-412.315,153.264 -412.743,151.826 -414.089,151.314C-414.493,151.16 -414.761,150.832 -414.761,150.492C-414.761,149.501 -415.811,148.72 -416.904,148.897C-417.581,149.007 -418.146,148.886 -418.826,148.485C-420.054,147.76 -421.211,147.982 -422.174,149.127C-422.563,149.589 -422.882,150.084 -422.882,150.226C-422.882,150.368 -423.316,150.485 -423.846,150.485C-424.897,150.485 -425.682,151.263 -425.682,152.305C-425.682,153.065 -424.922,154.125 -424.376,154.125C-424.138,154.125 -423.568,154.44 -423.111,154.825C-422.265,155.537 -421.107,155.722 -420.379,155.262C-420.117,155.096 -419.778,155.146 -419.407,155.406C-418.609,155.965 -417.184,155.903 -416.41,155.276Z" style="fill:rgb(229,230,230);fill-opacity:0.996078;fill-rule:nonzero;"/>
                        <path id="path4548" d="M-378.09,151.82C-378.228,151.681 -379.259,151.563 -380.38,151.558C-382.205,151.549 -382.533,151.435 -383.52,150.461C-384.126,149.863 -384.969,149.057 -385.392,148.67C-386.876,147.314 -385.885,144.546 -383.916,144.546C-383.358,144.546 -382.955,144.282 -382.744,143.776C-381.693,141.263 -378.765,140.289 -376.832,141.809C-376.354,142.186 -375.515,142.494 -374.969,142.494C-374.034,142.494 -372.478,143.544 -372.478,144.176C-372.478,144.334 -372.009,144.657 -371.436,144.895C-369.373,145.749 -368.776,148.541 -370.276,150.323C-371.242,151.472 -372.864,151.947 -374.168,151.463C-374.739,151.251 -375.28,151.298 -375.879,151.61C-376.855,152.12 -377.709,152.201 -378.09,151.82Z" style="fill:rgb(204,205,206);fill-opacity:0.996078;fill-rule:nonzero;"/>
                        <path id="path4550" d="M-492.814,164.659C-477.27,164.659 -462.606,165.876 -469.236,166.405C-491.453,168.177 -473.642,169.961 -466.267,170.247C-457.359,170.593 -445.658,170.422 -449.675,171.295C-453.692,172.169 -457.359,172.693 -459.63,172.693C-461.9,172.693 -475.036,175.68 -463.996,175.138C-451.133,174.506 -435.09,180.277 -453.517,178.631C-462.778,177.803 -471.682,178.73 -475.698,178.805C-493.96,179.146 -467.404,171.714 -482.335,173.042C-488.134,173.557 -492.164,172.916 -492.115,172.867L-492.814,164.659Z" style="fill:white;fill-opacity:0.321569;"/>
                        <path id="path4552" d="M-327.282,155.802C-318.839,154.392 -309.642,155.976 -306.498,156.675C-303.355,157.374 -288.861,162.293 -301.084,161.216C-326.086,159.012 -319.633,164.723 -304.228,164.884C-300.128,164.927 -289.805,171.033 -303.005,171.521C-309.942,171.777 -339.431,170.251 -329.902,167.329C-318.392,163.799 -341.335,163.313 -324.837,160.343C-315.408,158.645 -345.916,158.912 -327.282,155.802Z" style="fill:white;fill-opacity:0.227451;"/>
                        <path id="path4554" d="M-312.997,156.86C-321.44,155.45 -330.637,157.034 -333.781,157.733C-336.924,158.431 -351.418,163.351 -339.195,162.274C-314.193,160.07 -320.646,165.781 -336.051,165.942C-340.151,165.984 -350.474,172.091 -337.274,172.578C-330.337,172.834 -300.848,171.309 -310.377,168.387C-321.887,164.857 -298.944,164.37 -315.442,161.401C-324.871,159.703 -294.363,159.97 -312.997,156.86Z" style="fill:white;fill-opacity:0.227451;"/>
                        <path id="path4556" d="M-462.958,160.578C-462.958,160.578 -464.811,163.892 -463.065,163.92C-461.643,163.943 -462.958,160.578 -462.958,160.578Z" style="fill:rgb(29,111,175);fill-opacity:0.976471;"/>
                        <path id="path4558" d="M-474.142,173.524C-474.142,173.524 -475.996,176.838 -474.25,176.866C-472.827,176.889 -474.142,173.524 -474.142,173.524Z" style="fill:rgb(29,111,175);fill-opacity:0.976471;"/>
                        <path id="path4560" d="M-457.415,163.657C-457.415,163.657 -459.269,166.971 -457.523,166.999C-456.1,167.022 -457.415,163.657 -457.415,163.657Z" style="fill:rgb(29,111,175);fill-opacity:0.976471;"/>
                        <path id="path4562" d="M-377.915,172.328C-377.915,172.328 -379.768,175.642 -378.022,175.67C-376.6,175.693 -377.915,172.328 -377.915,172.328Z" style="fill:rgb(29,111,175);fill-opacity:0.976471;"/>
                        <path id="path4564" d="M-385.08,161.867C-385.08,161.867 -386.933,165.181 -385.188,165.209C-383.765,165.232 -385.08,161.867 -385.08,161.867Z" style="fill:rgb(29,111,175);fill-opacity:0.976471;"/>
                        <path id="path4566" d="M-377.941,157.449C-377.941,157.449 -379.795,160.763 -378.049,160.791C-376.626,160.814 -377.941,157.449 -377.941,157.449Z" style="fill:rgb(29,111,175);fill-opacity:0.976471;"/>
                        <path id="path4568" d="M-386.558,172.298C-386.558,172.298 -388.412,175.613 -386.666,175.641C-385.243,175.663 -386.558,172.298 -386.558,172.298Z" style="fill:rgb(29,111,175);fill-opacity:0.976471;"/>
                        <path id="path4570" d="M-455.555,156.47C-455.555,156.47 -457.408,159.784 -455.663,159.812C-454.24,159.835 -455.555,156.47 -455.555,156.47Z" style="fill:rgb(29,111,175);fill-opacity:0.976471;"/>
                        <path id="path4572" d="M-468.236,166.766C-468.236,166.766 -470.09,170.08 -468.344,170.108C-466.921,170.131 -468.236,166.766 -468.236,166.766Z" style="fill:rgb(29,111,175);fill-opacity:0.976471;"/>
                        <path id="path4574" d="M-476.879,176.349C-476.879,176.349 -478.733,179.663 -476.987,179.691C-475.564,179.714 -476.879,176.349 -476.879,176.349Z" style="fill:rgb(29,111,175);fill-opacity:0.976471;"/>
                        <path id="path4576" d="M-480.243,167.883C-480.243,167.883 -482.097,171.197 -480.351,171.226C-478.929,171.248 -480.243,167.883 -480.243,167.883Z" style="fill:rgb(29,111,175);fill-opacity:0.976471;"/>
                        <path id="path4578" d="M-456.279,174.857C-456.279,174.857 -458.132,178.171 -456.386,178.199C-454.964,178.222 -456.279,174.857 -456.279,174.857Z" style="fill:rgb(29,111,175);fill-opacity:0.976471;"/>
                        <path id="path4580" d="M-390.117,156.839C-390.117,156.839 -391.971,160.153 -390.225,160.181C-388.802,160.204 -390.117,156.839 -390.117,156.839Z" style="fill:rgb(29,111,175);fill-opacity:0.976471;"/>
                        <path id="path4582" d="M-383.857,168.807C-383.857,168.807 -385.71,172.121 -383.965,172.149C-382.542,172.172 -383.857,168.807 -383.857,168.807Z" style="fill:rgb(29,111,175);fill-opacity:0.976471;"/>
                        <path id="path4584" d="M-441.259,235.998C-441.259,234.814 -441.309,233.845 -441.371,233.845C-441.433,233.845 -441.944,234.159 -442.507,234.544C-443.07,234.928 -443.784,235.316 -444.094,235.405L-444.657,235.567L-444.111,234.829C-443.382,233.843 -443.637,233.68 -444.781,234.402C-445.773,235.028 -447.705,235.758 -448.369,235.758C-448.667,235.758 -448.579,235.564 -448.017,234.981C-447.605,234.554 -447.152,233.897 -447.011,233.523L-446.754,232.843L-447.953,232.985C-448.612,233.063 -449.716,233.193 -450.407,233.273L-451.663,233.418L-450.706,232.543L-449.749,231.667L-450.86,231.81C-451.471,231.889 -452.259,231.881 -452.611,231.793C-453.227,231.638 -453.201,231.604 -451.902,230.885C-450.401,230.054 -450.173,229.699 -451.065,229.579C-451.843,229.475 -452.287,229.061 -451.62,229.061C-450.691,229.061 -449.33,228.314 -448.043,227.097C-447.337,226.429 -446.76,225.8 -446.76,225.698C-446.76,225.596 -447.142,225.618 -447.61,225.747C-448.078,225.876 -448.696,225.941 -448.985,225.89C-449.473,225.805 -449.461,225.778 -448.821,225.511C-447.789,225.08 -446.84,224.346 -446.259,223.53L-445.74,222.8L-446.429,222.847C-446.808,222.873 -447.441,222.878 -447.836,222.859L-448.553,222.824L-447.716,222.464C-446.914,222.118 -444.368,219.826 -444.368,219.449C-444.368,219.349 -444.718,219.332 -445.145,219.412L-445.922,219.557L-445.11,218.988C-444.663,218.674 -444.139,218.176 -443.945,217.88C-443.61,217.369 -443.623,217.342 -444.224,217.342C-444.825,217.342 -444.79,217.276 -443.536,216.021C-442.018,214.504 -441.882,214.106 -442.954,214.321C-443.683,214.467 -443.678,214.455 -442.535,213.403C-441.571,212.515 -441.462,212.337 -441.885,212.329C-442.352,212.32 -442.333,212.257 -441.63,211.512C-441.212,211.068 -440.702,210.361 -440.499,209.94L-440.128,209.176L-439.498,210.252C-439.151,210.843 -438.583,211.551 -438.237,211.823L-437.606,212.319L-438.177,212.325C-438.698,212.33 -438.652,212.421 -437.637,213.39C-436.566,214.412 -436.551,214.445 -437.218,214.311C-438.25,214.105 -438.089,214.563 -436.61,216.042C-435.396,217.257 -435.35,217.342 -435.922,217.342C-436.501,217.342 -436.515,217.37 -436.181,217.88C-435.987,218.176 -435.462,218.675 -435.016,218.988L-434.203,219.557L-434.98,219.412C-435.408,219.333 -435.758,219.327 -435.758,219.401C-435.758,219.871 -433.846,221.723 -432.847,222.221L-431.648,222.818L-433.001,222.89L-434.354,222.963L-433.507,223.951C-433.041,224.495 -432.226,225.113 -431.697,225.324C-431.168,225.536 -430.735,225.779 -430.735,225.864C-430.735,225.949 -431.354,225.945 -432.11,225.857L-433.485,225.695L-432.29,226.927C-431.042,228.213 -429.594,229.047 -428.594,229.056C-427.862,229.063 -428.222,229.467 -429.061,229.579C-429.956,229.699 -429.723,230.054 -428.197,230.9C-426.871,231.634 -426.844,231.667 -427.465,231.823C-427.82,231.912 -428.62,231.917 -429.243,231.834L-430.376,231.683L-429.419,232.551L-428.463,233.418L-429.718,233.273C-430.409,233.193 -431.512,233.064 -432.17,232.986C-432.828,232.907 -433.366,232.914 -433.366,233.001C-433.366,233.35 -432.789,234.247 -432.081,235L-431.333,235.797L-432.29,235.643C-432.816,235.559 -433.973,235.129 -434.861,234.689C-435.749,234.249 -436.475,233.972 -436.475,234.074C-436.475,234.176 -436.242,234.556 -435.957,234.918L-435.438,235.577L-436.016,235.41C-436.334,235.318 -437.055,234.928 -437.618,234.544C-438.181,234.16 -438.692,233.845 -438.754,233.845C-438.816,233.845 -438.867,234.814 -438.867,235.998L-438.867,238.15L-440.063,238.15L-441.259,238.15L-441.259,235.998L-441.259,235.998Z" style="fill:rgb(51,85,41);fill-rule:nonzero;"/>
                        <path id="path4586" d="M-409.318,235.909C-409.318,235.033 -409.419,234.319 -409.542,234.32C-409.665,234.323 -410.504,234.5 -411.407,234.715C-412.309,234.93 -413.086,235.108 -413.132,235.11C-413.179,235.112 -413.079,234.882 -412.909,234.6C-412.471,233.872 -412.523,233.703 -413.122,233.915C-413.409,234.017 -414.694,234.447 -415.976,234.872L-418.309,235.644L-417.647,234.817L-416.985,233.991L-417.701,234.182C-418.095,234.287 -418.731,234.549 -419.114,234.764C-419.498,234.979 -419.867,235.106 -419.935,235.046C-420.003,234.985 -419.457,234.11 -418.722,233.101C-417.987,232.092 -417.383,231.174 -417.379,231.06C-417.376,230.947 -417.809,231.056 -418.343,231.3C-419.059,231.63 -419.227,231.649 -418.985,231.374C-418.805,231.169 -417.698,229.908 -416.524,228.573C-415.35,227.237 -414.39,226.08 -414.39,226C-414.39,225.92 -414.799,225.982 -415.3,226.138C-415.801,226.293 -416.264,226.371 -416.331,226.313C-416.397,226.254 -415.719,225.388 -414.824,224.389C-413.929,223.391 -413.197,222.487 -413.197,222.38C-413.197,222.274 -413.54,222.246 -413.959,222.317C-414.688,222.441 -414.649,222.34 -413.049,219.994C-412.129,218.645 -411.442,217.484 -411.522,217.413C-411.601,217.342 -411.973,217.475 -412.349,217.709C-413.475,218.41 -413.571,218.197 -412.667,217.007C-411.67,215.693 -409.617,212.43 -409.617,212.158C-409.617,212.055 -409.964,212.174 -410.388,212.421C-410.813,212.668 -411.202,212.831 -411.252,212.783C-411.303,212.735 -410.646,211.46 -409.792,209.95L-408.239,207.204L-406.731,209.95C-405.901,211.46 -405.26,212.735 -405.305,212.783C-405.351,212.831 -405.735,212.668 -406.16,212.421C-406.584,212.174 -406.932,212.039 -406.932,212.122C-406.932,212.295 -404.349,216.304 -403.528,217.405C-402.905,218.241 -403.058,218.317 -404.117,217.7C-405.258,217.035 -405.274,217.408 -404.169,218.967C-403.616,219.749 -402.846,220.855 -402.459,221.424L-401.756,222.458L-402.554,222.323C-402.993,222.248 -403.349,222.26 -403.346,222.349C-403.343,222.439 -402.594,223.328 -401.683,224.327C-400.772,225.325 -400.096,226.205 -400.182,226.281C-400.268,226.357 -400.748,226.293 -401.248,226.137C-401.749,225.982 -402.158,225.91 -402.158,225.977C-402.158,226.043 -401.084,227.297 -399.772,228.762C-398.459,230.227 -397.385,231.483 -397.385,231.552C-397.385,231.621 -397.788,231.493 -398.28,231.266C-398.772,231.04 -399.175,230.916 -399.175,230.991C-399.175,231.067 -398.571,231.966 -397.833,232.991C-397.094,234.015 -396.49,234.914 -396.49,234.988C-396.49,235.062 -397.161,234.82 -397.982,234.45C-399.6,233.72 -399.835,233.808 -398.826,234.763C-398.47,235.1 -398.235,235.421 -398.304,235.476C-398.373,235.531 -399.631,235.178 -401.099,234.69C-402.568,234.203 -403.829,233.857 -403.901,233.922C-403.974,233.986 -403.861,234.224 -403.65,234.45C-403.07,235.072 -403.385,235.132 -404.979,234.705C-407.216,234.107 -407.23,234.114 -407.23,235.909L-407.23,237.501L-408.274,237.501L-409.318,237.501L-409.318,235.909L-409.318,235.909Z" style="fill:rgb(45,76,36);fill-rule:nonzero;"/>
                        <g id="g4588" transform="matrix(0.399726,0,0,0.399726,-226.002,89.1544)">
                            <path id="path4590" d="M-309.748,195.923L-309.748,273.623L-216.639,273.623L-216.639,227.003L-263.391,227.003L-263.391,195.923L-309.748,195.923Z" style="fill:rgb(77,77,77);fill-rule:nonzero;"/>
                            <path id="path4592" d="M-309.748,195.923L-309.748,273.623L-216.639,273.623L-216.639,227.003L-263.391,227.003L-263.391,195.923L-309.748,195.923Z" style="fill:rgb(243,240,217);fill-opacity:0.752941;fill-rule:nonzero;"/>
                            <path id="path4594" d="M-313.393,277.871C-314.607,276.657 -313.902,273.441 -312.332,273.03C-310.76,272.619 -310.732,271.939 -310.732,233.97C-310.732,212.718 -310.508,194.744 -310.234,194.03C-308.038,188.308 -283.931,185.471 -271.075,189.42C-263.491,191.75 -262.431,193.055 -261.932,200.679L-261.532,206.798L-238.132,213.167L-214.732,219.535L-214.732,246.073C-214.732,272.253 -214.71,272.618 -213.074,273.045C-211.8,273.379 -211.475,274.004 -211.674,275.739L-211.932,277.998L-262.393,278.204C-290.147,278.317 -313.097,278.167 -313.393,277.871ZM-236.496,267.398L-236.732,261.998L-244.332,261.998L-251.932,261.998L-252.169,267.398L-252.406,272.798L-236.259,272.798L-236.496,267.398ZM-305.252,262.32C-303.015,261.54 -302.732,261.097 -302.732,258.367C-302.732,254.602 -303.235,254.241 -306.54,255.631C-308.737,256.555 -309.132,257.133 -309.132,259.426C-309.132,261.673 -308.642,263.198 -307.918,263.198C-307.837,263.198 -306.637,262.803 -305.252,262.32ZM-288.532,259.556C-287.949,259.376 -287.532,257.906 -287.532,256.023L-287.532,252.798L-291.88,252.798C-298.378,252.798 -300.332,253.781 -300.332,257.045C-300.332,258.523 -300.103,259.961 -299.823,260.241C-299.336,260.728 -290.625,260.199 -288.532,259.556ZM-273.132,257.298C-273.132,254.018 -273.29,253.767 -275.632,253.298C-277.007,253.023 -279.728,252.798 -281.678,252.798L-285.224,252.798L-284.732,259.598L-280.332,260.068C-277.912,260.326 -275.302,260.596 -274.532,260.668C-273.393,260.774 -273.132,260.148 -273.132,257.298ZM-219.684,252.198L-219.932,249.198L-243.132,249.198L-266.332,249.198L-266.581,252.198L-266.829,255.198L-219.436,255.198L-219.684,252.198ZM-305.252,251.12C-302.94,250.314 -302.732,249.951 -302.732,246.72C-302.732,244.783 -302.924,243.198 -303.158,243.198C-303.392,243.198 -304.832,243.72 -306.358,244.357C-308.749,245.356 -309.132,245.891 -309.132,248.224C-309.132,250.473 -308.642,251.998 -307.918,251.998C-307.837,251.998 -306.637,251.603 -305.252,251.12ZM-289.332,248.332C-287.828,248.028 -287.532,247.445 -287.532,244.783L-287.532,241.598L-291.88,241.598C-298.378,241.598 -300.332,242.581 -300.332,245.845C-300.332,247.323 -300.114,248.75 -299.847,249.017C-299.376,249.488 -292.991,249.071 -289.332,248.332ZM-273.291,245.895C-273.012,242.081 -273.826,241.628 -280.978,241.609L-285.224,241.598L-284.732,248.398L-280.332,248.875C-273.632,249.602 -273.561,249.572 -273.291,245.895L-273.291,245.895ZM-219.684,241.798L-219.932,238.798L-243.332,238.586L-266.732,238.374L-266.732,244.798L-219.436,244.798L-219.684,241.798ZM-305.252,239.92C-302.94,239.114 -302.732,238.751 -302.732,235.52C-302.732,233.583 -302.924,231.998 -303.158,231.998C-303.392,231.998 -304.832,232.52 -306.358,233.157C-308.749,234.156 -309.132,234.691 -309.132,237.024C-309.132,239.273 -308.642,240.798 -307.918,240.798C-307.837,240.798 -306.637,240.403 -305.252,239.92ZM-289.288,237.121C-287.661,236.79 -287.472,236.346 -287.688,233.372L-287.932,229.998L-292.732,230.282C-298.587,230.627 -300.332,231.472 -300.332,233.961C-300.332,237.845 -299.7,238.337 -295.264,237.901C-292.992,237.678 -290.302,237.327 -289.288,237.121ZM-273.289,234.581C-273.054,231.409 -273.143,231.271 -275.689,230.86C-277.143,230.626 -279.772,230.336 -281.532,230.216L-284.732,229.998L-284.732,237.198L-279.932,237.657C-273.464,238.274 -273.566,238.322 -273.289,234.581ZM-219.684,231.398L-219.932,228.398L-243.332,228.186L-266.732,227.974L-266.732,234.398L-219.436,234.398L-219.684,231.398ZM-305.252,228.72C-302.94,227.914 -302.732,227.551 -302.732,224.32C-302.732,222.383 -302.924,220.798 -303.158,220.798C-303.392,220.798 -304.832,221.32 -306.358,221.957C-308.749,222.956 -309.132,223.491 -309.132,225.824C-309.132,228.073 -308.642,229.598 -307.918,229.598C-307.837,229.598 -306.637,229.203 -305.252,228.72ZM-290.089,225.913C-287.532,225.523 -287.453,225.399 -287.689,222.154L-287.932,218.798L-292.732,219.086C-298.595,219.437 -300.332,220.277 -300.332,222.761C-300.332,227.2 -299.734,227.384 -290.089,225.913ZM-273.29,223.404C-273.011,219.654 -273.34,219.451 -280.332,219.05L-284.732,218.798L-284.977,222.172C-285.247,225.896 -284.976,226.08 -278.332,226.643C-273.658,227.04 -273.555,226.974 -273.29,223.404ZM-304.132,217.014C-303.073,216.71 -302.732,215.758 -302.732,213.105C-302.732,209.274 -303.235,208.99 -306.772,210.819C-308.664,211.797 -309.132,212.564 -309.132,214.685C-309.132,217.774 -308.498,218.648 -306.774,217.932C-306.091,217.649 -304.902,217.236 -304.132,217.014ZM-264.332,214.877C-264.332,211.654 -264.544,211.281 -266.824,210.486C-270.034,209.367 -270.732,209.867 -270.732,213.284C-270.732,215.668 -270.353,216.24 -268.132,217.206C-264.417,218.82 -264.332,218.768 -264.332,214.877ZM-291.289,214.776L-287.446,214.287L-287.689,210.943L-287.932,207.598L-293.132,207.882C-299.256,208.216 -300.332,208.896 -300.332,212.43C-300.332,215.17 -299.521,215.866 -296.763,215.488C-295.866,215.366 -293.403,215.045 -291.289,214.776ZM-273.132,211.966C-273.132,208.446 -273.595,208.193 -280.732,207.812L-284.732,207.598L-284.976,210.954C-285.212,214.194 -285.129,214.324 -282.576,214.746C-278.777,215.373 -274.43,215.68 -273.732,215.37C-273.402,215.224 -273.132,213.692 -273.132,211.966ZM-302.732,201.777C-302.732,198.303 -302.781,198.237 -304.928,198.776C-308.16,199.587 -309.132,200.694 -309.132,203.563C-309.132,206.921 -308.768,207.182 -305.488,206.175C-302.888,205.378 -302.732,205.129 -302.732,201.777ZM-264.332,203.248C-264.332,200.621 -264.662,200.056 -266.684,199.218C-269.739,197.953 -270.732,198.656 -270.732,202.084C-270.732,204.474 -270.36,205.032 -268.14,205.965C-264.838,207.354 -264.332,206.994 -264.332,203.248ZM-273.278,200.304L-273.532,197.198L-278.332,196.596C-280.972,196.265 -283.582,196.164 -284.132,196.371C-284.701,196.585 -285.132,198.118 -285.132,199.924C-285.132,203.418 -285.949,203.019 -276.332,204.228C-273.538,204.58 -272.986,203.87 -273.278,200.304ZM-290.492,203.478C-287.494,202.983 -287.455,202.93 -287.692,199.687L-287.932,196.398L-293.132,196.672C-295.992,196.823 -298.782,197.317 -299.332,197.77C-300.386,198.638 -300.707,202.557 -299.799,203.465C-299.131,204.133 -294.493,204.139 -290.492,203.478L-290.492,203.478Z" style="fill:rgb(77,77,77);fill-rule:nonzero;"/>
                        </g>
                        <path id="path4596" d="M-342.259,209.25C-350.281,209.125 -354.442,215.062 -351.59,222.561L-345.318,239.05C-344.794,240.428 -344.068,241.76 -343.187,243.017L-335.607,243.017L-343.132,223.827C-344.908,219.297 -342.422,215.709 -337.557,215.783L-307.684,216.234L-307.684,209.8C-307.771,209.798 -307.86,209.786 -307.948,209.784L-342.259,209.25L-342.259,209.25Z" style="fill:rgb(115,115,115);fill-rule:nonzero;"/>
                        <path id="path4598" d="M-332.679,222.011C-332.679,221.463 -332.703,221.424 -333.149,221.237C-333.551,221.068 -333.732,221.062 -334.395,221.193C-335.001,221.312 -335.271,221.313 -335.628,221.196C-335.933,221.095 -336.318,221.079 -336.794,221.146C-337.185,221.202 -337.561,221.25 -337.63,221.253C-337.925,221.268 -337.664,220.767 -336.769,219.604C-336.243,218.922 -335.813,218.302 -335.813,218.227C-335.813,218.152 -335.897,218.058 -335.999,218.019C-336.254,217.921 -336.089,217.511 -335.303,216.285C-334.658,215.279 -334.575,215.056 -334.848,215.056C-334.937,215.056 -335.075,214.991 -335.154,214.912C-335.312,214.754 -335.124,214.31 -334.357,213.034C-333.872,212.228 -333.85,212.096 -334.147,211.768C-334.351,211.543 -334.347,211.502 -334.071,210.981C-333.911,210.68 -333.399,209.808 -332.933,209.045L-332.086,207.657L-331.203,209.132C-330.717,209.943 -330.221,210.817 -330.099,211.074C-329.886,211.525 -329.887,211.55 -330.117,211.805C-330.353,212.065 -330.351,212.077 -329.999,212.716C-328.816,214.867 -328.759,215.056 -329.303,215.056C-329.437,215.056 -329.546,215.102 -329.546,215.159C-329.546,215.215 -329.208,215.789 -328.794,216.434C-328.001,217.671 -327.921,217.9 -328.237,218.021C-328.51,218.125 -328.422,218.29 -327.354,219.684C-326.371,220.966 -326.19,221.405 -326.695,221.279C-327.52,221.074 -328.094,221.048 -328.546,221.198C-328.94,221.328 -329.176,221.328 -329.776,221.202C-330.679,221.01 -331.418,221.2 -331.438,221.63C-331.483,222.562 -331.447,222.51 -332.084,222.551L-332.679,222.59L-332.679,222.012L-332.679,222.011Z" style="fill:rgb(51,85,41);fill-rule:nonzero;"/>
                        <path id="path4600" d="M-318.28,222.011C-318.28,221.463 -318.304,221.424 -318.75,221.237C-319.152,221.068 -319.333,221.062 -319.996,221.193C-320.602,221.312 -320.872,221.313 -321.228,221.196C-321.534,221.095 -321.919,221.079 -322.395,221.146C-322.786,221.202 -323.162,221.25 -323.231,221.253C-323.526,221.268 -323.264,220.767 -322.369,219.604C-321.843,218.922 -321.413,218.302 -321.413,218.227C-321.413,218.152 -321.497,218.058 -321.6,218.019C-321.854,217.921 -321.69,217.511 -320.904,216.285C-320.259,215.279 -320.176,215.056 -320.448,215.056C-320.538,215.056 -320.676,214.991 -320.755,214.912C-320.913,214.754 -320.724,214.31 -319.958,213.034C-319.473,212.228 -319.451,212.096 -319.748,211.768C-319.952,211.543 -319.948,211.502 -319.672,210.981C-319.512,210.68 -318.999,209.808 -318.534,209.045L-317.687,207.657L-316.804,209.132C-316.318,209.943 -315.821,210.817 -315.7,211.074C-315.487,211.525 -315.487,211.55 -315.718,211.805C-315.954,212.065 -315.952,212.077 -315.6,212.716C-314.416,214.867 -314.36,215.056 -314.904,215.056C-315.037,215.056 -315.147,215.102 -315.147,215.159C-315.147,215.215 -314.809,215.789 -314.395,216.434C-313.602,217.671 -313.522,217.9 -313.838,218.021C-314.11,218.125 -314.023,218.29 -312.954,219.684C-311.972,220.966 -311.791,221.405 -312.296,221.279C-313.12,221.074 -313.695,221.048 -314.147,221.198C-314.541,221.328 -314.777,221.328 -315.376,221.202C-316.28,221.01 -317.019,221.2 -317.039,221.63C-317.084,222.562 -317.048,222.51 -317.685,222.551L-318.28,222.59L-318.28,222.012L-318.28,222.011Z" style="fill:rgb(51,85,41);fill-rule:nonzero;"/>
                        <g id="g4602" transform="matrix(1,0,0,1,-4.8,-49.1244)">
                            <rect id="rect4604" x="-332.056" y="277.462" width="27.744" height="5.01" style="fill:rgb(115,115,115);"/>
                            <ellipse id="ellipse4606" cx="-317.569" cy="282.37" rx="14.487" ry="3.534" style="fill:rgb(115,115,115);"/>
                            <ellipse id="ellipse4608" cx="-317.569" cy="277.57" rx="14.487" ry="3.534" style="fill:rgb(146,146,146);"/>
                            <ellipse id="ellipse4610" cx="-317.569" cy="277.57" rx="12.326" ry="3.007" style="fill:rgb(116,161,194);fill-opacity:0.988235;"/>
                            <ellipse id="ellipse4612" cx="-317.569" cy="277.57" rx="1.362" ry="0.332" style="fill:rgb(121,121,121);"/>
                            <path id="path4614" d="M-315.677,271.362C-315.872,271.349 -316.058,271.372 -316.217,271.433C-317.155,271.789 -317.578,271.916 -317.659,273.681C-317.862,271.853 -318.381,271.73 -319.228,271.459C-319.878,271.252 -320.622,271.544 -321.091,272.481C-321.559,273.419 -321.325,275.177 -321.325,275.177C-320.241,274.96 -320.739,273.067 -319.45,273.419C-318.161,273.77 -317.575,277.286 -317.575,277.286C-317.575,277.286 -316.989,273.77 -315.7,273.419C-314.411,273.067 -314.909,274.96 -313.825,275.177C-313.825,275.177 -313.591,273.419 -314.059,272.481C-314.411,271.778 -315.09,271.404 -315.677,271.362Z" style="fill:rgb(68,118,154);fill-opacity:0.639216;"/>
                        </g>
                        <g id="g4616" transform="matrix(1,0,0,1,0,-48)">
                            <path id="path4618" d="M-488.403,235.019C-488.403,235.019 -487.484,234.645 -487.04,234.596C-486.635,234.552 -486.341,234.564 -486.341,234.564L-487.324,235.054L-488.403,235.019Z" style="fill:rgb(37,93,35);"/>
                            <path id="path4620" d="M-487.438,235.074C-487.438,235.074 -486.586,234.439 -486.163,234.58C-485.74,234.721 -485.411,235.087 -485.411,235.087L-486.774,235.144L-487.438,235.074Z" style="fill:rgb(41,103,39);"/>
                        </g>
                        <g id="g4622" transform="matrix(1,0,0,1,4.94801,-47.9939)">
                            <path id="path4624" d="M-488.403,235.019C-488.403,235.019 -487.484,234.645 -487.04,234.596C-486.635,234.552 -486.341,234.564 -486.341,234.564L-487.324,235.054L-488.403,235.019Z" style="fill:rgb(37,93,35);"/>
                            <path id="path4626" d="M-487.438,235.074C-487.438,235.074 -486.586,234.439 -486.163,234.58C-485.74,234.721 -485.106,235.012 -485.106,235.012L-486.774,235.144L-487.438,235.074Z" style="fill:rgb(41,103,39);"/>
                            <path id="path4628" d="M-482.994,235.019C-482.994,235.019 -482.074,234.645 -481.631,234.596C-481.226,234.552 -480.932,234.564 -480.932,234.564L-481.915,235.054L-482.994,235.019Z" style="fill:rgb(37,93,35);"/>
                            <path id="path4630" d="M-482.028,235.074C-482.028,235.074 -481.177,234.439 -480.754,234.58C-480.19,234.553 -479.423,235.012 -479.423,235.012L-481.365,235.144L-482.028,235.074Z" style="fill:rgb(41,103,39);"/>
                            <path id="path4632" d="M-477.576,235.028C-477.576,235.028 -476.656,234.654 -476.213,234.605C-475.808,234.561 -475.514,234.573 -475.514,234.573L-476.497,235.063L-477.576,235.028Z" style="fill:rgb(37,93,35);"/>
                            <path id="path4634" d="M-476.61,235.083C-476.61,235.083 -475.759,234.448 -475.336,234.589C-474.771,234.562 -474.747,235.118 -474.747,235.118L-475.947,235.153L-476.61,235.083Z" style="fill:rgb(41,103,39);"/>
                            <path id="path4636" d="M-473.739,235.046C-473.739,235.046 -473.014,234.627 -472.571,234.579C-472.166,234.534 -471.872,234.546 -471.872,234.546L-472.855,235.036L-473.739,235.046Z" style="fill:rgb(37,93,35);"/>
                            <path id="path4638" d="M-472.968,235.056C-472.968,235.056 -472.303,234.404 -471.88,234.545C-471.315,234.518 -471.282,235.1 -471.282,235.1L-472.305,235.126L-472.968,235.056Z" style="fill:rgb(41,103,39);"/>
                            <path id="path4640" d="M-470.814,235.037C-470.814,235.037 -470.089,234.618 -469.646,234.57C-469.241,234.525 -468.946,234.537 -468.946,234.537L-469.929,235.028L-470.814,235.037Z" style="fill:rgb(37,93,35);"/>
                            <path id="path4642" d="M-470.043,235.047C-470.043,235.047 -469.191,234.377 -468.768,234.518C-468.204,234.491 -468.003,235.03 -468.003,235.03L-469.379,235.118L-470.043,235.047Z" style="fill:rgb(41,103,39);"/>
                            <path id="path4644" d="M-467.738,235.028C-467.738,235.028 -467.013,234.61 -466.57,234.561C-466.165,234.516 -465.871,234.529 -465.871,234.529L-466.854,235.019L-467.738,235.028Z" style="fill:rgb(37,93,35);"/>
                            <path id="path4646" d="M-466.967,235.038C-466.967,235.038 -466.425,234.395 -466.002,234.536C-465.438,234.509 -465.122,235.021 -465.122,235.021L-466.303,235.109L-466.967,235.038Z" style="fill:rgb(41,103,39);"/>
                            <path id="path4648" d="M-464.247,235.028C-464.247,235.028 -463.521,234.61 -463.078,234.561C-462.673,234.516 -462.379,234.529 -462.379,234.529L-463.362,235.019L-464.247,235.028Z" style="fill:rgb(37,93,35);"/>
                            <path id="path4650" d="M-463.475,235.038C-463.475,235.038 -462.933,234.395 -462.511,234.536C-461.946,234.509 -461.303,235.012 -461.303,235.012L-462.812,235.109L-463.475,235.038Z" style="fill:rgb(41,103,39);"/>
                        </g>
                        <path id="path4652" d="M-381.995,238.841C-381.327,238.057 -381.269,237.737 -381.269,237.737L-381.647,237.911L-381.153,236.807L-382.141,237.476L-381.647,235.936L-382.722,236.749L-382.228,235.326C-382.228,235.326 -382.722,235.587 -383.012,235.878C-383.303,236.168 -383.68,236.517 -383.68,236.517C-383.68,236.517 -383.651,235.849 -383.535,235.587C-383.419,235.326 -383.186,234.687 -383.186,234.687C-383.186,234.687 -383.971,235.152 -384.203,235.471C-384.436,235.791 -384.9,236.343 -384.9,236.343C-384.9,236.343 -385.046,235.587 -385.046,235.239C-385.046,234.89 -384.929,234.251 -384.929,234.251C-384.929,234.251 -385.598,235.064 -385.83,235.5C-386.062,235.936 -386.237,236.401 -386.237,236.401C-386.237,236.401 -386.498,235.965 -386.556,235.616C-386.614,235.268 -386.672,234.338 -386.672,234.338C-386.672,234.338 -387.166,234.948 -387.282,235.384C-387.399,235.82 -387.602,236.459 -387.602,236.459L-388.648,235.355L-388.328,237.185L-389.403,235.994C-389.403,235.994 -389.403,236.488 -389.287,236.924C-389.171,237.359 -388.851,237.766 -388.851,237.766L-389.665,237.534C-389.665,237.534 -389.432,238.26 -389.142,238.492C-388.851,238.725 -388.764,238.783 -388.764,238.783L-381.995,238.841Z" style="fill:rgb(68,105,58);"/>
                        <path id="path4654" d="M-369.622,230.789C-370.29,230.005 -370.348,229.685 -370.348,229.685L-369.971,229.86L-370.464,228.756L-369.477,229.424L-369.971,227.884L-368.896,228.698L-369.389,227.274C-369.389,227.274 -368.896,227.536 -368.605,227.826C-368.315,228.117 -367.937,228.465 -367.937,228.465C-367.937,228.465 -367.966,227.797 -368.082,227.536C-368.198,227.274 -368.431,226.635 -368.431,226.635C-368.431,226.635 -367.646,227.1 -367.414,227.419C-367.182,227.739 -366.717,228.291 -366.717,228.291C-366.717,228.291 -366.572,227.536 -366.572,227.187C-366.572,226.838 -366.688,226.199 -366.688,226.199C-366.688,226.199 -366.02,227.013 -365.787,227.448C-365.555,227.884 -365.381,228.349 -365.381,228.349C-365.381,228.349 -365.119,227.913 -365.061,227.565C-365.003,227.216 -364.945,226.286 -364.945,226.286C-364.945,226.286 -364.451,226.896 -364.335,227.332C-364.218,227.768 -364.015,228.407 -364.015,228.407L-362.969,227.303L-363.289,229.133L-362.214,227.942C-362.214,227.942 -362.214,228.436 -362.33,228.872C-362.446,229.308 -362.766,229.714 -362.766,229.714L-361.953,229.482C-361.953,229.482 -362.185,230.208 -362.475,230.441C-362.766,230.673 -362.853,230.731 -362.853,230.731L-369.622,230.789Z" style="fill:rgb(68,105,58);"/>
                        <path id="path4656" d="M-380.887,214.766C-381.294,214.289 -381.329,214.094 -381.329,214.094L-381.099,214.2L-381.4,213.528L-380.798,213.935L-381.099,212.997L-380.445,213.492L-380.745,212.626C-380.745,212.626 -380.445,212.785 -380.268,212.962C-380.091,213.139 -379.861,213.351 -379.861,213.351C-379.861,213.351 -379.878,212.944 -379.949,212.785C-380.02,212.626 -380.162,212.236 -380.162,212.236C-380.162,212.236 -379.684,212.519 -379.542,212.714C-379.401,212.909 -379.118,213.245 -379.118,213.245C-379.118,213.245 -379.029,212.785 -379.029,212.573C-379.029,212.36 -379.1,211.971 -379.1,211.971C-379.1,211.971 -378.693,212.466 -378.552,212.732C-378.41,212.997 -378.304,213.28 -378.304,213.28C-378.304,213.28 -378.145,213.015 -378.109,212.802C-378.074,212.59 -378.039,212.024 -378.039,212.024C-378.039,212.024 -377.738,212.396 -377.667,212.661C-377.596,212.926 -377.472,213.316 -377.472,213.316L-376.836,212.643L-377.03,213.758L-376.376,213.032C-376.376,213.032 -376.376,213.333 -376.446,213.599C-376.517,213.864 -376.712,214.112 -376.712,214.112L-376.216,213.97C-376.216,213.97 -376.358,214.412 -376.535,214.554C-376.712,214.695 -376.765,214.731 -376.765,214.731L-380.887,214.766Z" style="fill:rgb(68,105,58);"/>
                        <path id="path4658" d="M-382.958,211.153C-382.551,210.675 -382.516,210.48 -382.516,210.48L-382.746,210.587L-382.445,209.914L-383.046,210.321L-382.746,209.384L-383.4,209.879L-383.099,209.012C-383.099,209.012 -383.4,209.171 -383.577,209.348C-383.754,209.525 -383.984,209.737 -383.984,209.737C-383.984,209.737 -383.966,209.331 -383.896,209.171C-383.825,209.012 -383.683,208.623 -383.683,208.623C-383.683,208.623 -384.161,208.906 -384.303,209.101C-384.444,209.295 -384.727,209.631 -384.727,209.631C-384.727,209.631 -384.816,209.171 -384.816,208.959C-384.816,208.747 -384.745,208.357 -384.745,208.357C-384.745,208.357 -385.152,208.853 -385.293,209.118C-385.435,209.384 -385.541,209.667 -385.541,209.667C-385.541,209.667 -385.7,209.401 -385.735,209.189C-385.771,208.977 -385.806,208.411 -385.806,208.411C-385.806,208.411 -386.107,208.782 -386.178,209.047C-386.249,209.313 -386.372,209.702 -386.372,209.702L-387.009,209.03L-386.815,210.144L-387.469,209.419C-387.469,209.419 -387.469,209.72 -387.398,209.985C-387.328,210.25 -387.133,210.498 -387.133,210.498L-387.628,210.357C-387.628,210.357 -387.487,210.799 -387.31,210.94C-387.133,211.082 -387.08,211.117 -387.08,211.117L-382.958,211.153Z" style="fill:rgb(68,105,58);"/>
                        <path id="path4660" d="M-380.14,195.653C-379.844,195.305 -379.818,195.163 -379.818,195.163L-379.986,195.241L-379.767,194.751L-380.204,195.048L-379.986,194.365L-380.462,194.726L-380.243,194.095C-380.243,194.095 -380.462,194.211 -380.591,194.339C-380.72,194.468 -380.887,194.623 -380.887,194.623C-380.887,194.623 -380.874,194.326 -380.823,194.211C-380.771,194.095 -380.668,193.811 -380.668,193.811C-380.668,193.811 -381.016,194.017 -381.119,194.159C-381.222,194.301 -381.428,194.545 -381.428,194.545C-381.428,194.545 -381.492,194.211 -381.492,194.056C-381.492,193.902 -381.441,193.618 -381.441,193.618C-381.441,193.618 -381.737,193.979 -381.84,194.172C-381.943,194.365 -382.02,194.571 -382.02,194.571C-382.02,194.571 -382.136,194.378 -382.162,194.223C-382.187,194.069 -382.213,193.657 -382.213,193.657C-382.213,193.657 -382.432,193.927 -382.484,194.12C-382.535,194.314 -382.625,194.597 -382.625,194.597L-383.089,194.108L-382.947,194.919L-383.424,194.391C-383.424,194.391 -383.424,194.61 -383.372,194.803C-383.321,194.996 -383.179,195.176 -383.179,195.176L-383.54,195.073C-383.54,195.073 -383.437,195.395 -383.308,195.498C-383.179,195.601 -383.14,195.627 -383.14,195.627L-380.14,195.653Z" style="fill:rgb(68,105,58);"/>
                        <path id="path4662" d="M-362.786,193.894C-362.49,193.546 -362.464,193.404 -362.464,193.404L-362.631,193.482L-362.412,192.992L-362.85,193.288L-362.631,192.606L-363.108,192.966L-362.889,192.335C-362.889,192.335 -363.108,192.451 -363.236,192.58C-363.365,192.709 -363.533,192.863 -363.533,192.863C-363.533,192.863 -363.52,192.567 -363.468,192.451C-363.417,192.335 -363.314,192.052 -363.314,192.052C-363.314,192.052 -363.661,192.258 -363.764,192.4C-363.867,192.542 -364.073,192.786 -364.073,192.786C-364.073,192.786 -364.138,192.451 -364.138,192.297C-364.138,192.142 -364.086,191.859 -364.086,191.859C-364.086,191.859 -364.383,192.22 -364.486,192.413C-364.589,192.606 -364.666,192.812 -364.666,192.812C-364.666,192.812 -364.782,192.619 -364.807,192.464C-364.833,192.31 -364.859,191.898 -364.859,191.898C-364.859,191.898 -365.078,192.168 -365.129,192.361C-365.181,192.554 -365.271,192.838 -365.271,192.838L-365.735,192.348L-365.593,193.16L-366.069,192.632C-366.069,192.632 -366.069,192.851 -366.018,193.044C-365.966,193.237 -365.825,193.417 -365.825,193.417L-366.185,193.314C-366.185,193.314 -366.082,193.636 -365.953,193.739C-365.825,193.842 -365.786,193.868 -365.786,193.868L-362.786,193.894Z" style="fill:rgb(68,105,58);"/>
                        <path id="path4664" d="M-373.562,197.222C-373.858,196.874 -373.884,196.732 -373.884,196.732L-373.716,196.81L-373.935,196.32L-373.497,196.617L-373.716,195.934L-373.24,196.295L-373.459,195.664C-373.459,195.664 -373.24,195.78 -373.111,195.908C-372.982,196.037 -372.815,196.192 -372.815,196.192C-372.815,196.192 -372.828,195.895 -372.879,195.78C-372.931,195.664 -373.034,195.38 -373.034,195.38C-373.034,195.38 -372.686,195.586 -372.583,195.728C-372.48,195.87 -372.274,196.114 -372.274,196.114C-372.274,196.114 -372.21,195.78 -372.21,195.625C-372.21,195.471 -372.261,195.187 -372.261,195.187C-372.261,195.187 -371.965,195.548 -371.862,195.741C-371.759,195.934 -371.682,196.14 -371.682,196.14C-371.682,196.14 -371.566,195.947 -371.54,195.792C-371.514,195.638 -371.489,195.226 -371.489,195.226C-371.489,195.226 -371.27,195.496 -371.218,195.689C-371.167,195.883 -371.077,196.166 -371.077,196.166L-370.613,195.677L-370.755,196.488L-370.278,195.96C-370.278,195.96 -370.278,196.179 -370.33,196.372C-370.381,196.565 -370.523,196.745 -370.523,196.745L-370.162,196.642C-370.162,196.642 -370.265,196.964 -370.394,197.067C-370.523,197.17 -370.562,197.196 -370.562,197.196L-373.562,197.222Z" style="fill:rgb(68,105,58);"/>
                    </g>
                    <g id="path4575" transform="matrix(0.106185,-0.00338792,0.00338792,0.106185,-308.29,45.2852)">
                        <path d="M-911.404,432.573C-924.664,431.364 -935.942,429.661 -946.424,427.286C-949.272,426.641 -953.729,425.634 -956.329,425.048C-980.355,419.637 -1010.29,407.615 -1036.89,392.7C-1111.4,350.915 -1166.78,281.206 -1186.78,204.022C-1189.49,193.571 -1192.09,181.551 -1192.76,176.38C-1192.99,174.615 -1193.71,172.223 -1194.37,171.063C-1195.54,168.978 -1195.79,168.943 -1216.06,167.928L-1236.57,166.902L-1239.45,163.715C-1243.55,159.183 -1243.85,156.489 -1240.77,151.909C-1239.38,149.842 -1217.51,129.226 -1192.17,106.096C-1141.6,59.931 -1143.42,61.274 -1134.77,63.755C-1130.94,64.852 -1127.86,68.059 -1088.58,111.795C-1065.43,137.571 -1045.92,159.869 -1045.22,161.347C-1044.15,163.584 -1044.15,164.667 -1045.21,167.819C-1045.9,169.901 -1047.53,172.634 -1048.82,173.893L-1051.17,176.182L-1075.02,174.988C-1092.36,174.12 -1099.18,174.077 -1100.02,174.83C-1101.87,176.508 -1101.54,179.986 -1098.7,188.828C-1080.04,246.81 -1039.12,295.347 -985.663,322.919C-953.915,339.294 -927.324,346.404 -890.795,348.284C-869.485,349.381 -860.411,348.863 -837.829,345.264C-830.833,344.149 -815.189,340.019 -805.75,336.796C-785.241,329.793 -765.045,319.47 -746.189,306.353C-735.718,299.07 -715.087,280.383 -706.163,270.1C-700.017,263.017 -698.826,262.047 -696.971,262.613C-693.906,263.547 -620.959,296.661 -620.257,297.436C-619.766,297.98 -628.452,309.669 -637.264,320.324C-688.576,382.366 -762.54,422.76 -841.715,431.98C-865.842,434.79 -885.292,434.956 -911.404,432.573L-911.404,432.573ZM-628.664,196.01C-631.249,194.421 -710.942,105.181 -713.955,100.501C-716.973,95.814 -716.444,92.499 -712.027,88.406L-708.332,84.983L-681.299,86.336C-648.928,87.956 -651.188,88.881 -653.938,75.142C-662.732,31.221 -681.945,-5.968 -712.757,-38.707C-746.821,-74.9 -790.507,-98.286 -841.122,-107.423C-851.501,-109.297 -885.376,-111.011 -895.332,-110.166C-916.916,-108.335 -939.57,-103.477 -958.214,-96.683C-1001.38,-80.952 -1038.6,-52.628 -1066.52,-14.268L-1073.04,-5.313L-1076.35,-6.675C-1078.17,-7.424 -1086.68,-11.151 -1095.25,-14.958C-1103.82,-18.766 -1117.85,-24.995 -1126.43,-28.801C-1135,-32.608 -1143.93,-36.551 -1146.28,-37.565C-1148.62,-38.578 -1150.7,-39.691 -1150.89,-40.038C-1151.39,-40.948 -1140.1,-58.435 -1132.19,-69.007C-1109.51,-99.305 -1077.12,-129.015 -1045.3,-148.702C-1008.33,-171.58 -968.053,-186.343 -925.642,-192.566C-916.958,-193.84 -911.738,-194.366 -894.448,-195.71C-884.687,-196.468 -844.201,-194.399 -832.764,-192.557C-766.686,-181.918 -710.251,-154.316 -662.997,-109.527C-608.61,-57.977 -574.853,10.232 -566.271,85.918C-565.567,92.126 -565.557,92.129 -543.01,93.258C-520.409,94.389 -521.287,94.1 -518.709,101.256C-516.141,108.385 -514.957,107.066 -565.206,153.062C-590.736,176.431 -612.796,196.085 -614.228,196.737C-617.492,198.223 -625.739,197.808 -628.664,196.01L-628.664,196.01Z" style="fill:white;fill-opacity:0.784314;fill-rule:nonzero;"/>
                    </g>
                    <g id="path4605" transform="matrix(0.034408,-0.00109782,0.00109782,0.034408,-421.291,54.0186)">
                        <path d="M-911.404,432.573C-924.664,431.364 -935.942,429.661 -946.424,427.286C-949.272,426.641 -953.729,425.634 -956.329,425.048C-980.355,419.637 -1010.29,407.615 -1036.89,392.7C-1111.4,350.915 -1166.78,281.206 -1186.78,204.022C-1189.49,193.571 -1192.09,181.551 -1192.76,176.38C-1192.99,174.615 -1193.71,172.223 -1194.37,171.063C-1195.54,168.978 -1195.79,168.943 -1216.06,167.928L-1236.57,166.902L-1239.45,163.715C-1243.55,159.183 -1243.85,156.489 -1240.77,151.909C-1239.38,149.842 -1217.51,129.226 -1192.17,106.096C-1141.6,59.931 -1143.42,61.274 -1134.77,63.755C-1130.94,64.852 -1127.86,68.059 -1088.58,111.795C-1065.43,137.571 -1045.92,159.869 -1045.22,161.347C-1044.15,163.584 -1044.15,164.667 -1045.21,167.819C-1045.9,169.901 -1047.53,172.634 -1048.82,173.893L-1051.17,176.182L-1075.02,174.988C-1092.36,174.12 -1099.18,174.077 -1100.02,174.83C-1101.87,176.508 -1101.54,179.986 -1098.7,188.828C-1080.04,246.81 -1039.12,295.347 -985.663,322.919C-953.915,339.294 -927.324,346.404 -890.795,348.284C-869.485,349.381 -860.411,348.863 -837.829,345.264C-830.833,344.149 -815.189,340.019 -805.75,336.796C-785.241,329.793 -765.045,319.47 -746.189,306.353C-735.718,299.07 -715.087,280.383 -706.163,270.1C-700.017,263.017 -698.826,262.047 -696.971,262.613C-693.906,263.547 -620.959,296.661 -620.257,297.436C-619.766,297.98 -628.452,309.669 -637.264,320.324C-688.576,382.366 -762.54,422.76 -841.715,431.98C-865.842,434.79 -885.292,434.956 -911.404,432.573L-911.404,432.573ZM-628.664,196.01C-631.249,194.421 -710.942,105.181 -713.955,100.501C-716.973,95.814 -716.444,92.499 -712.027,88.406L-708.332,84.983L-681.299,86.336C-648.928,87.956 -651.188,88.881 -653.938,75.142C-662.732,31.221 -681.945,-5.968 -712.757,-38.707C-746.821,-74.9 -790.507,-98.286 -841.122,-107.423C-851.501,-109.297 -885.376,-111.011 -895.332,-110.166C-916.916,-108.335 -939.57,-103.477 -958.214,-96.683C-1001.38,-80.952 -1038.6,-52.628 -1066.52,-14.268L-1073.04,-5.313L-1076.35,-6.675C-1078.17,-7.424 -1086.68,-11.151 -1095.25,-14.958C-1103.82,-18.766 -1117.85,-24.995 -1126.43,-28.801C-1135,-32.608 -1143.93,-36.551 -1146.28,-37.565C-1148.62,-38.578 -1150.7,-39.691 -1150.89,-40.038C-1151.39,-40.948 -1140.1,-58.435 -1132.19,-69.007C-1109.51,-99.305 -1077.12,-129.015 -1045.3,-148.702C-1008.33,-171.58 -968.053,-186.343 -925.642,-192.566C-916.958,-193.84 -911.738,-194.366 -894.448,-195.71C-884.687,-196.468 -844.201,-194.399 -832.764,-192.557C-766.686,-181.918 -710.251,-154.316 -662.997,-109.527C-608.61,-57.977 -574.853,10.232 -566.271,85.918C-565.567,92.126 -565.557,92.129 -543.01,93.258C-520.409,94.389 -521.287,94.1 -518.709,101.256C-516.141,108.385 -514.957,107.066 -565.206,153.062C-590.736,176.431 -612.796,196.085 -614.228,196.737C-617.492,198.223 -625.739,197.808 -628.664,196.01L-628.664,196.01Z" style="fill:white;fill-opacity:0.784314;fill-rule:nonzero;"/>
                    </g>
                    <g id="path4609" transform="matrix(0.034408,-0.00109782,0.00109782,0.034408,-318.891,54.0186)">
                        <path d="M-911.404,432.573C-924.664,431.364 -935.942,429.661 -946.424,427.286C-949.272,426.641 -953.729,425.634 -956.329,425.048C-980.355,419.637 -1010.29,407.615 -1036.89,392.7C-1111.4,350.915 -1166.78,281.206 -1186.78,204.022C-1189.49,193.571 -1192.09,181.551 -1192.76,176.38C-1192.99,174.615 -1193.71,172.223 -1194.37,171.063C-1195.54,168.978 -1195.79,168.943 -1216.06,167.928L-1236.57,166.902L-1239.45,163.715C-1243.55,159.183 -1243.85,156.489 -1240.77,151.909C-1239.38,149.842 -1217.51,129.226 -1192.17,106.096C-1141.6,59.931 -1143.42,61.274 -1134.77,63.755C-1130.94,64.852 -1127.86,68.059 -1088.58,111.795C-1065.43,137.571 -1045.92,159.869 -1045.22,161.347C-1044.15,163.584 -1044.15,164.667 -1045.21,167.819C-1045.9,169.901 -1047.53,172.634 -1048.82,173.893L-1051.17,176.182L-1075.02,174.988C-1092.36,174.12 -1099.18,174.077 -1100.02,174.83C-1101.87,176.508 -1101.54,179.986 -1098.7,188.828C-1080.04,246.81 -1039.12,295.347 -985.663,322.919C-953.915,339.294 -927.324,346.404 -890.795,348.284C-869.485,349.381 -860.411,348.863 -837.829,345.264C-830.833,344.149 -815.189,340.019 -805.75,336.796C-785.241,329.793 -765.045,319.47 -746.189,306.353C-735.718,299.07 -715.087,280.383 -706.163,270.1C-700.017,263.017 -698.826,262.047 -696.971,262.613C-693.906,263.547 -620.959,296.661 -620.257,297.436C-619.766,297.98 -628.452,309.669 -637.264,320.324C-688.576,382.366 -762.54,422.76 -841.715,431.98C-865.842,434.79 -885.292,434.956 -911.404,432.573L-911.404,432.573ZM-628.664,196.01C-631.249,194.421 -710.942,105.181 -713.955,100.501C-716.973,95.814 -716.444,92.499 -712.027,88.406L-708.332,84.983L-681.299,86.336C-648.928,87.956 -651.188,88.881 -653.938,75.142C-662.732,31.221 -681.945,-5.968 -712.757,-38.707C-746.821,-74.9 -790.507,-98.286 -841.122,-107.423C-851.501,-109.297 -885.376,-111.011 -895.332,-110.166C-916.916,-108.335 -939.57,-103.477 -958.214,-96.683C-1001.38,-80.952 -1038.6,-52.628 -1066.52,-14.268L-1073.04,-5.313L-1076.35,-6.675C-1078.17,-7.424 -1086.68,-11.151 -1095.25,-14.958C-1103.82,-18.766 -1117.85,-24.995 -1126.43,-28.801C-1135,-32.608 -1143.93,-36.551 -1146.28,-37.565C-1148.62,-38.578 -1150.7,-39.691 -1150.89,-40.038C-1151.39,-40.948 -1140.1,-58.435 -1132.19,-69.007C-1109.51,-99.305 -1077.12,-129.015 -1045.3,-148.702C-1008.33,-171.58 -968.053,-186.343 -925.642,-192.566C-916.958,-193.84 -911.738,-194.366 -894.448,-195.71C-884.687,-196.468 -844.201,-194.399 -832.764,-192.557C-766.686,-181.918 -710.251,-154.316 -662.997,-109.527C-608.61,-57.977 -574.853,10.232 -566.271,85.918C-565.567,92.126 -565.557,92.129 -543.01,93.258C-520.409,94.389 -521.287,94.1 -518.709,101.256C-516.141,108.385 -514.957,107.066 -565.206,153.062C-590.736,176.431 -612.796,196.085 -614.228,196.737C-617.492,198.223 -625.739,197.808 -628.664,196.01L-628.664,196.01Z" style="fill:white;fill-opacity:0.780392;fill-rule:nonzero;"/>
                    </g>
                </g>
            </g>
        </g>
    </g>
</svg>
